<svg width="294" height="67" viewBox="0 0 294 67" fill="none" xmlns="http://www.w3.org/2000/svg">
<path d="M148.342 2.19611C141.706 5.85006 140.047 9.08641 140.047 18.1691C140.047 26.7297 141.608 30.1749 147.269 33.7244C152.929 37.274 165.714 35.708 168.446 31.1145C168.739 30.4881 168.153 29.0265 167.08 27.7737C165.03 25.6858 164.933 25.6858 161.029 27.5649C153.807 31.1145 146.39 26.4165 146.39 18.2735C146.39 9.7128 154.198 4.80607 161.42 8.77321C164.055 10.2348 164.445 10.2348 166.494 8.14682C169.227 5.32807 168.837 4.38848 163.567 1.88292C158.199 -0.727043 153.612 -0.622643 148.342 2.19611Z" fill="white"/>
<path d="M273.256 0.630226C269.547 2.0918 267.4 5.53695 267.4 9.71289C267.498 16.3944 270.133 18.8999 278.428 20.2571C280.965 20.6747 284.088 21.8231 285.259 22.8671C287.309 24.7463 287.406 24.7463 285.552 26.9386C282.82 30.175 276.866 29.9662 273.646 26.521C271.304 24.0155 271.108 24.0155 268.278 25.5814C265.546 27.043 265.351 27.3562 266.717 29.4442C269.449 33.9333 272.865 35.7081 278.818 35.8125C285.747 35.9169 290.432 33.9333 292.286 30.0706C296.19 22.1363 291.993 15.5592 281.941 13.8888C276.574 13.0536 274.231 11.8009 274.231 9.81729C274.231 6.16334 281.453 5.01496 285.064 8.14691C287.114 9.92168 287.602 10.0261 290.139 8.6689C292.384 7.41612 292.676 6.78973 291.798 5.11936C290.139 1.88301 285.552 -0.100563 279.892 0.00383759C277.062 0.00383759 274.036 0.317032 273.256 0.630226Z" fill="white"/>
<path d="M0 12.8445V24.746L3.31813 26.8339C9.07607 30.4879 8.58811 37.7958 2.34221 40.8233C0.0975922 41.9717 0 42.2849 0 54.3951V66.7141H8.10015L16.1027 66.6097L19.8112 60.9722C21.7631 57.9446 23.4221 55.1259 23.4221 54.8127C23.4221 54.4995 20.7871 54.1863 17.5666 54.1863C12.4918 54.1863 11.7111 53.8731 11.7111 52.3071C11.7111 51.1587 12.687 49.4884 13.7605 48.34C20.8847 41.6585 21.2751 27.3559 14.6388 19.7348C10.4424 14.9325 10.8327 13.4709 16.1027 13.4709H20.4944V7.20702V0.943115H10.2472H0V12.8445Z" fill="white"/>
<path d="M71.0461 6.68503C68.9966 9.71258 67.3376 12.5313 67.3376 12.8445C67.3376 13.1577 69.0942 13.4709 71.2412 13.4709C76.1209 13.4709 76.4136 15.3501 72.2172 20.3612C66.264 27.6691 66.264 39.0485 72.2172 47.0872C77.4871 53.9775 77.0968 54.1863 59.823 54.1863L44.4034 54.2907L40.7925 59.9282C38.7431 62.9558 37.084 65.7745 37.084 66.0877C37.084 66.4009 48.3071 66.7141 61.97 66.7141H86.856V54.3951L86.7584 42.1805L83.6355 40.0925C78.6583 36.7518 78.7558 29.3395 83.9282 26.5207L86.856 24.8503V12.9489V0.943115H80.8053L74.657 1.04752L71.0461 6.68503Z" fill="white"/>
<path d="M95.6412 4.07489L93.5918 7.20684H98.9594H104.425V21.3006V35.3944H107.84H111.256V21.3006V7.20684H116.136C120.918 7.20684 121.015 7.10244 121.015 4.07489V0.942936H109.402H97.6907L95.6412 4.07489Z" fill="white"/>
<path d="M126.869 18.1687V35.3944H130.285H133.701V18.1687V0.942936H130.285H126.869V18.1687Z" fill="white"/>
<path d="M174.691 18.1687V35.3944H178.107H181.523V28.9217V22.449L187.671 28.9217C192.941 34.5592 194.307 35.3944 197.43 35.3944C199.675 35.3944 201.041 34.8724 201.041 34.1416C201.041 33.4108 197.918 29.4437 194.015 25.2678L187.086 17.7511L190.989 12.74C193.234 10.0256 196.162 6.58045 197.528 5.22327C201.041 1.67373 200.749 0.942936 195.967 0.942936C192.16 0.942936 191.38 1.46493 186.695 6.89364L181.62 12.9488L181.523 6.89364V0.942936H178.107H174.691V18.1687Z" fill="white"/>
<path d="M204.943 18.1687V35.3944H217.142H229.341V31.7405V28.0865H220.558H211.775V24.9546V21.8226H220.07H228.365V18.1687V14.5147H220.07H211.775V11.3828V8.25082H220.558H229.341V4.59688V0.942936H217.142H204.943V18.1687Z" fill="white"/>
<path d="M236.174 3.76169L234.027 6.68485L239.493 6.99804L244.958 7.31124V21.3006V35.3944H248.373H251.789V21.3006V7.20684H256.669C261.451 7.20684 261.548 7.10244 261.548 4.07489V0.942936H249.935C238.419 0.942936 238.224 0.942936 236.174 3.76169Z" fill="white"/>
<path d="M113.207 50.011V60.4508H121.502C126.089 60.4508 129.798 60.1376 129.798 59.6156C129.798 59.198 129.017 56.4837 128.041 53.6649C126.382 48.7582 126.089 48.445 122.966 48.445C120.429 48.445 119.453 48.967 119.258 50.4286C118.965 51.9945 119.258 52.3077 120.917 51.7857C122.966 51.2637 124.137 52.3077 125.211 55.4397C125.699 57.0057 125.211 57.3189 121.502 57.3189H117.111V48.445C117.111 40.3019 116.916 39.5711 115.159 39.5711C113.305 39.5711 113.207 40.3019 113.207 50.011Z" fill="white"/>
<path d="M181.52 50.011V60.4508H186.399H191.279V54.7089C191.279 50.3242 190.986 48.967 189.815 48.967C188.741 48.967 188.351 50.1154 188.351 53.1429C188.351 56.5881 188.058 57.3189 186.399 57.3189C184.642 57.3189 184.447 56.5881 184.447 48.445C184.447 41.2415 184.155 39.5711 182.983 39.5711C181.812 39.5711 181.52 41.4503 181.52 50.011Z" fill="white"/>
<path d="M237.148 50.011V60.4508L252.47 60.3464C261.644 60.3464 268.378 59.8244 269.061 59.198C270.915 57.5277 270.623 51.6813 268.573 49.6978C264.962 46.1482 260.18 48.5494 259.399 54.1869C259.204 55.9617 258.424 56.9013 256.96 57.1101C255.008 57.4233 254.715 57.0057 254.715 53.9781C254.715 51.9945 254.227 49.9066 253.544 49.1758C250.421 45.835 243.98 49.5934 243.98 54.7089C243.98 56.5881 243.492 57.3189 242.028 57.3189C240.271 57.3189 240.076 56.5881 240.076 48.445C240.076 41.2415 239.783 39.5711 238.612 39.5711C237.441 39.5711 237.148 41.4503 237.148 50.011ZM251.592 54.5001C251.885 56.6925 251.494 57.3189 250.031 57.3189C247.688 57.3189 246.517 54.3957 247.981 52.4121C249.64 50.3242 251.202 51.2637 251.592 54.5001ZM267.109 55.6485C266.329 57.7364 263.596 57.8408 262.913 55.7529C262.522 54.9177 262.913 53.4561 263.596 52.5165C264.669 51.1593 264.962 51.1593 266.231 52.5165C267.012 53.3517 267.402 54.8133 267.109 55.6485Z" fill="white"/>
<path d="M162.982 44.164C162.982 45.208 163.861 45.8344 165.032 45.8344C167.374 45.8344 167.081 43.4332 164.641 42.9112C163.666 42.7024 162.982 43.2244 162.982 44.164Z" fill="white"/>
<path d="M188.35 44.2682C188.35 45.3122 189.033 45.8342 190.106 45.6254C192.156 45.2078 191.961 43.3286 189.911 42.911C188.935 42.7023 188.35 43.2242 188.35 44.2682Z" fill="white"/>
<path d="M246.908 44.2686C246.908 45.5214 247.689 45.939 250.129 45.6258C251.788 45.417 253.252 44.7906 253.252 44.2686C253.252 43.6422 251.788 43.1202 250.129 42.9114C247.689 42.5982 246.908 43.0158 246.908 44.2686Z" fill="white"/>
<path d="M161.223 49.5933C159.856 50.6373 159.076 52.2032 159.076 54.2912C159.076 57.4232 158.978 57.4232 154.489 57.11C150.195 56.7968 149.805 56.588 149.512 53.8736C149.024 50.0109 146.389 50.1153 146.389 54.0824C146.389 60.5551 146.194 60.4507 162.589 60.4507H177.618V54.7088C177.618 50.3241 177.326 48.9669 176.154 48.9669C175.081 48.9669 174.691 50.1153 174.691 53.1428C174.691 56.9012 174.495 57.3188 172.251 57.3188C170.104 57.3188 169.811 56.9012 169.811 53.6648C169.811 48.3405 165.614 46.2525 161.223 49.5933ZM166.688 54.5C166.981 56.7968 166.59 57.3188 164.931 57.3188C162.394 57.3188 161.32 54.7088 162.979 52.6208C164.736 50.3241 166.298 51.2636 166.688 54.5Z" fill="white"/>
<path d="M211.777 49.3841C211.777 50.1149 213.143 51.0545 214.704 51.3677C217.047 51.8897 217.632 52.6205 217.632 54.7085C217.632 57.0052 217.242 57.3184 214.217 57.3184C211.874 57.3184 210.801 57.8404 210.801 58.78C210.801 60.0328 213.045 60.346 223 60.346C233.149 60.4504 235.199 60.1372 235.199 58.8844C235.199 57.9448 234.32 57.3184 232.857 57.3184C230.124 57.3184 227.879 54.8128 228.758 52.6205C229.051 51.7853 230.417 51.0545 231.783 51.0545C233.345 51.0545 234.223 50.4281 234.223 49.4885C234.223 48.4445 233.247 47.9226 231.002 47.9226C226.903 47.9226 225.44 49.4885 225.44 53.8733C225.44 56.5876 225.049 57.3184 223.585 57.3184C221.634 57.3184 220.56 55.4392 220.56 52.0985C220.56 50.9501 219.682 49.5929 218.706 48.9665C215.973 47.4006 211.777 47.6094 211.777 49.3841Z" fill="white"/>
<path d="M98.5671 54.6045C98.5671 61.5992 97.884 63.5828 95.5418 63.5828C94.5658 63.5828 93.6875 64.3136 93.6875 65.1488C93.6875 67.3411 97.884 67.1323 99.8358 64.8356C100.812 63.7916 101.495 62.33 101.495 61.7036C101.495 60.8684 103.154 60.4508 105.887 60.4508H110.278V54.7089C110.278 50.3242 109.985 48.967 108.814 48.967C107.741 48.967 107.35 50.1154 107.35 53.2473C107.35 57.2145 107.253 57.4233 104.715 57.1101C102.373 56.7969 101.983 56.2749 101.69 52.8298C101.495 50.3242 100.909 48.967 99.9334 48.967C98.9575 48.967 98.5671 50.4286 98.5671 54.6045Z" fill="white"/>
<path d="M135.652 58.8848C135.652 59.9288 136.628 60.4508 138.58 60.4508C140.532 60.4508 141.508 59.9288 141.508 58.8848C141.508 57.8408 140.532 57.3189 138.58 57.3189C136.628 57.3189 135.652 57.8408 135.652 58.8848Z" fill="white"/>
<path d="M199.086 58.8848C199.086 59.8244 199.964 60.4508 201.526 60.4508C203.087 60.4508 203.966 59.8244 203.966 58.8848C203.966 57.9452 203.087 57.3189 201.526 57.3189C199.964 57.3189 199.086 57.9452 199.086 58.8848Z" fill="white"/>
<path d="M107.354 64.6261C107.354 65.7745 108.037 66.7141 108.817 66.7141C109.598 66.7141 110.281 65.7745 110.281 64.6261C110.281 63.4778 109.598 62.5382 108.817 62.5382C108.037 62.5382 107.354 63.4778 107.354 64.6261Z" fill="white"/>
<path d="M121.99 64.6262C121.99 65.9834 122.478 66.7142 123.259 66.5054C123.844 66.1922 124.43 65.357 124.43 64.6262C124.43 63.8954 123.844 63.0603 123.259 62.7471C122.478 62.5383 121.99 63.2691 121.99 64.6262Z" fill="white"/>
<path d="M172.249 63.5822C171.565 64.8349 172.444 66.7141 173.81 66.7141C174.298 66.7141 174.688 65.7745 174.688 64.6261C174.688 62.4338 173.225 61.8074 172.249 63.5822Z" fill="white"/>
<path d="M175.668 64.5217C175.668 65.7745 176.254 66.7141 177.229 66.7141C178.108 66.7141 178.596 65.9833 178.401 64.9393C177.913 62.3294 175.668 62.0162 175.668 64.5217Z" fill="white"/>
<path d="M25.3768 7.20663V13.3661L37.9662 13.6793L50.6532 13.9925L37.4782 33.6194C30.2564 44.3725 24.4009 53.5595 24.4009 54.0815C24.4009 54.4991 22.6442 57.5267 20.3996 60.8674L16.3983 66.8181L24.0105 66.5049C31.5251 66.1917 31.6227 66.1917 34.1601 62.4334C35.5264 60.3454 40.6012 52.5155 45.5784 45.2076C50.458 37.7954 55.5328 30.1743 56.8015 28.2951C58.0702 26.4159 59.9244 23.5972 61.0955 22.0312C62.169 20.4652 63.9257 17.5421 64.9992 15.5585C65.9751 13.5749 68.5125 9.39899 70.562 6.47584L74.2705 0.942726H49.7748H25.3768V7.20663Z" fill="white"/>
<path d="M283.409 45.3119C283.117 46.7735 282.238 47.9219 281.458 47.9219C280.677 47.9219 280.091 48.3395 280.091 48.9659C280.091 49.4879 280.579 50.0099 281.067 50.0099C281.653 50.0099 282.043 50.7406 282.043 51.5758C282.043 52.411 281.36 53.1418 280.579 53.1418C279.799 53.1418 279.115 53.5594 279.115 54.1858C279.115 54.7078 279.603 55.2298 280.091 55.2298C280.677 55.2298 280.872 56.3782 280.482 57.8397C279.994 59.8233 280.286 60.4497 281.458 60.4497C282.238 60.4497 283.214 59.3013 283.605 57.8397C284.385 54.3946 286.825 54.3946 286.142 57.8397C285.654 60.8673 287.606 61.4937 288.582 58.5705C288.875 57.6309 290.046 55.9606 291.217 55.021C292.973 53.455 293.071 53.1418 291.607 53.1418C289.167 53.1418 289.363 50.9494 291.802 50.323C293.754 49.8011 294.535 47.9219 292.778 47.9219C292.29 47.9219 291.802 46.7735 291.802 45.3119C291.802 42.0756 289.167 41.7624 288.679 44.9987C288.484 46.2515 287.801 47.3999 287.02 47.7131C286.044 48.0263 285.752 47.5043 286.142 45.4163C286.825 41.8668 284.288 41.658 283.409 45.3119ZM287.703 51.2626C287.118 53.1418 284.971 53.455 284.971 51.6802C284.971 50.7406 285.654 50.0099 286.532 50.0099C287.411 50.0099 287.899 50.5318 287.703 51.2626Z" fill="white"/>
</svg>
