<svg width="289" height="69" viewBox="0 0 289 69" fill="none" xmlns="http://www.w3.org/2000/svg">
<path d="M115.008 50.3252C115.008 50.3414 115.015 50.3739 115.031 50.4227L114.962 50.6174H114.985V50.6661C114.985 50.6985 114.977 50.7229 114.962 50.7391C114.249 51.3235 112.503 51.8591 109.726 52.346C106.963 52.8332 105.059 53.0765 104.012 53.0765C102.979 53.0765 102.403 53.0686 102.281 53.0521L101.12 53.1251C99.9059 53.2064 99.2076 53.2471 99.0256 53.2471C92.6508 53.2471 87.794 51.5345 84.4549 48.1095C81.1309 44.6845 79.4689 39.8232 79.4689 33.525C79.4689 27.2109 81.2598 22.4224 84.8419 19.1597C88.4391 15.8971 93.3036 14.2657 99.4354 14.2657C100.558 14.2657 101.94 14.3794 103.579 14.6066C105.233 14.8339 106.683 15.1666 107.927 15.6049C109.445 16.2704 110.743 17.2362 111.821 18.5023C112.913 19.7522 113.627 21.14 113.96 22.6657C114.021 23.0878 114.09 23.7533 114.165 24.6623C114.257 25.5551 114.332 26.2126 114.393 26.6345C114.302 26.878 113.976 26.9997 113.414 26.9997L101.849 26.7806C101.788 26.7482 101.712 26.529 101.621 26.1233V26.1964C101.348 24.8815 100.809 24.0779 100.004 23.7859C99.6403 23.6398 99.1622 23.5668 98.5703 23.5668C97.9783 23.5668 97.4167 23.6722 96.8854 23.8832C96.3695 24.0943 95.9368 24.3863 95.5878 24.7598C95.2386 25.133 94.9276 25.5713 94.6544 26.0745C94.3811 26.5614 94.1762 27.089 94.0396 27.6572C93.903 28.2254 93.7815 28.8096 93.6754 29.4102C93.5691 30.0108 93.5008 30.6032 93.4705 31.1876C93.4554 31.772 93.4325 32.332 93.4022 32.8676C93.387 33.4034 93.387 33.8497 93.4022 34.2069C93.4174 34.5478 93.4248 34.7749 93.4248 34.8886V36.5685C93.4248 37.6237 93.4705 38.3622 93.5614 38.7843C93.6526 39.1899 93.7589 39.6444 93.8804 40.1478C94.0016 40.6348 94.1459 41.008 94.3128 41.2678C94.9047 42.1606 95.5421 42.7854 96.2252 43.1425C96.9234 43.4835 98.001 43.6538 99.458 43.6538C100.93 43.6538 102.327 43.4185 103.647 42.9477L103.761 39.1007L102.122 38.9546L101.894 39.0765H99.5263L99.2531 39.1007L98.684 38.4676C98.6537 38.1919 98.6386 37.7536 98.6386 37.1529V31.699C98.6386 31.423 98.8206 31.147 99.1848 30.8712H100.71C102.031 30.8712 103.511 30.8874 105.15 30.9198H105.377C106.865 30.9523 107.996 30.9685 108.77 30.9685H110.136L110.659 30.9443C113.361 30.9443 114.902 31.1308 115.281 31.5043L115.008 49.9844V50.3252ZM131.632 33.2328C131.632 33.249 131.625 33.2897 131.609 33.3547V33.4275C131.549 34.1094 131.518 34.8724 131.518 35.7163C131.518 36.5606 131.579 37.4531 131.7 38.3946C131.837 39.336 132.049 40.2775 132.338 41.2189C132.641 42.1606 133.104 42.9233 133.726 43.5077C134.394 44.1245 135.138 44.433 135.958 44.433C136.793 44.433 137.491 44.3113 138.052 44.0677C138.629 43.8082 139.107 43.4835 139.487 43.0938C139.881 42.7044 140.223 42.1768 140.511 41.5111C141.24 39.7419 141.604 36.9986 141.604 33.2817C141.604 29.4994 141.194 26.8536 140.374 25.3442C139.57 23.8183 138.348 23.0554 136.709 23.0554C135.889 23.0554 135.168 23.2663 134.546 23.6884C133.939 24.1105 133.476 24.5489 133.157 25.0031C132.854 25.4576 132.535 26.4235 132.201 27.9008C131.882 29.3778 131.723 30.7413 131.723 31.9912L131.632 33.2328ZM118.541 33.4275L118.587 32.892C118.769 30.863 119.012 29.0694 119.315 27.5111C119.619 25.9366 120.112 24.4676 120.795 23.104C122.419 20.1012 124.681 17.8287 127.58 16.2866C130.494 14.7284 133.628 13.9492 136.982 13.9492C140.352 13.9492 143.41 14.6715 146.157 16.1162C147.796 16.9765 149.079 18.064 150.005 19.3788C151.781 21.7487 152.949 23.932 153.511 25.9284C154.073 27.925 154.353 30.23 154.353 32.8434C154.353 38.6544 153.23 43.0856 150.984 46.1373L149.937 47.6226C148.525 49.3756 146.529 50.7311 143.949 51.6888C141.369 52.6302 138.811 53.1172 136.276 53.1496C131.936 53.1496 128.376 52.1757 125.599 50.2278C120.894 46.9651 118.541 41.365 118.541 33.4275ZM194.154 52.0052C194.139 52.2164 193.721 52.3218 192.902 52.3218H190.807L189.396 52.346H188.007L185.799 52.3704C183.598 52.3704 181.769 52.3136 180.312 52.1999C180.266 52.1837 180.213 52.0865 180.152 51.908L180.039 51.3966C179.902 49.7246 179.545 48.1095 178.969 46.5512L169.224 46.6487C169.164 46.9247 168.966 47.7442 168.633 49.1078C168.299 50.4713 168.048 51.5021 167.881 52.1999C167.729 52.3625 167.009 52.4435 165.718 52.4435L165.149 52.4191H163.829L157.909 52.5652H157.226L156.589 52.5896H154.995C154.889 52.4759 154.775 52.3298 154.654 52.1513C156.172 46.535 158.228 39.5714 160.824 31.2607L161.347 29.5321H161.324L161.939 27.5111C162.136 26.8618 162.698 25.06 163.624 22.1057C164.565 19.1516 165.149 17.2443 165.377 16.384C165.62 15.5237 165.764 15.0773 165.81 15.0449H169.589L177.671 14.9232L179.857 15.0449L181.655 14.9232C182.566 14.9232 183.021 15.1179 183.021 15.5075C184.539 20.0362 186.565 26.5534 189.1 35.0589C191.634 43.5646 193.061 48.3449 193.38 49.4L193.699 50.6174C193.805 51.0558 193.957 51.5183 194.154 52.0052ZM171.615 38.7112L172.548 38.7357L177.99 38.7112C177.762 36.7797 177.588 35.3593 177.466 34.4503L176.601 30.2868C175.69 25.9852 175.22 23.7939 175.189 23.7129C175.159 23.6316 175.129 23.5585 175.098 23.4937C175.083 23.4124 175.068 23.3638 175.053 23.3476C175.038 23.3152 175.015 23.2663 174.984 23.2015C174.969 23.1364 174.946 23.096 174.916 23.0798C174.901 23.0472 174.878 23.0068 174.848 22.9579C174.742 22.7632 174.521 22.5927 174.188 22.4468C173.778 22.544 172.556 27.4301 170.522 37.1043L170.272 38.7112H171.615ZM222.936 42.3878C222.83 42.8423 222.776 43.3292 222.776 43.8485V44.4085C222.776 45.2689 222.83 45.8858 222.936 46.259C222.936 48.7101 222.928 50.6012 222.913 51.9321C222.822 52.3542 215.332 52.5652 200.442 52.5652C199.759 52.5652 198.628 52.549 197.05 52.5166C196.807 52.0296 196.686 51.2261 196.686 50.1061L196.731 48.5234V42.9964L196.754 38.3704V33.7928L196.777 26.4156C196.777 25.052 196.762 23.7697 196.731 22.5685V22.3007L196.663 18.7945C196.663 16.733 196.822 15.3939 197.141 14.777C197.445 14.7933 197.862 14.8014 198.393 14.8014H199.486L203.311 14.7527C207.667 14.7527 210.065 15.0449 210.505 15.6292L210.323 24.1268L210.255 31.2607L210.232 31.5529L210.141 41.6817L211.051 42.2417C213.799 42.0631 216.455 41.9739 219.02 41.9739C221.6 41.9739 222.906 42.1118 222.936 42.3878ZM254.768 18.1614L254.7 23.031V23.3476C254.472 24.9707 252.81 27.5841 249.714 31.1876L247.96 33.2328C246.002 35.7001 244.417 37.7291 243.202 39.3198L240.607 42.7044H241.815L255.02 42.5094C255.246 42.5094 255.36 43.9543 255.36 46.8434V49.5705L255.407 51.153C255.407 51.6726 255.306 51.9972 255.111 52.1269C254.929 52.273 254.593 52.346 254.108 52.346H253.516L226.219 52.5896C225.794 52.5896 225.475 52.541 225.262 52.4435C225.05 52.346 224.83 52.1189 224.602 51.7618C224.602 47.3304 224.549 44.5711 224.443 43.4835L224.807 43.1669L228.017 39.0034C232.722 32.7053 236.374 27.8925 238.969 24.5651L232.252 24.6381L230.567 24.6867C228.913 24.7354 227.251 24.7598 225.581 24.7598C225.414 24.6623 225.339 24.419 225.354 24.0293C225.384 23.6398 225.384 23.3314 225.354 23.104V22.6415L225.376 22.4468V21.0102L225.172 15.4344L225.194 15.2884C225.224 15.2884 225.293 15.3208 225.399 15.3858C225.794 15.3858 227.281 15.3858 229.861 15.3858C232.457 15.3858 238.626 15.3046 248.371 15.1423L253.311 15.0692C253.828 15.0855 254.206 15.191 254.448 15.3858C254.693 15.5643 254.814 15.9539 254.814 16.5545L254.768 17.918V18.1614ZM287.716 18.1614L287.649 23.031V23.3476C287.42 24.9707 285.758 27.5841 282.662 31.1876L280.909 33.2328C278.951 35.7001 277.365 37.7291 276.151 39.3198L273.556 42.7044H274.761L287.966 42.5094C288.194 42.5094 288.308 43.9543 288.308 46.8434V49.5705L288.353 51.153C288.353 51.6726 288.255 51.9972 288.057 52.1269C287.875 52.273 287.541 52.346 287.057 52.346H286.464L259.167 52.5896C258.743 52.5896 258.423 52.541 258.211 52.4435C257.999 52.346 257.778 52.1189 257.551 51.7618C257.551 47.3304 257.498 44.5711 257.391 43.4835L257.754 43.1669L260.964 39.0034C265.671 32.7053 269.32 27.8925 271.917 24.5651L265.2 24.6381L263.515 24.6867C261.86 24.7354 260.2 24.7598 258.528 24.7598C258.363 24.6623 258.286 24.419 258.302 24.0293C258.332 23.6398 258.332 23.3314 258.302 23.104V22.6415L258.325 22.4468V21.0102L258.12 15.4344L258.141 15.2884C258.172 15.2884 258.241 15.3208 258.346 15.3858C258.743 15.3858 260.23 15.3858 262.809 15.3858C265.406 15.3858 271.574 15.3046 281.319 15.1423L286.259 15.0692C286.774 15.0855 287.154 15.191 287.397 15.3858C287.639 15.5643 287.763 15.9539 287.763 16.5545L287.716 17.918V18.1614Z" fill="white"/>
<path d="M32.0112 67.8189C49.2644 67.8189 63.2508 52.861 63.2508 34.4094C63.2508 15.9579 49.2644 1 32.0112 1C14.7581 1 0.771606 15.9579 0.771606 34.4094C0.771606 52.861 14.7581 67.8189 32.0112 67.8189Z" stroke="white"/>
<path fill-rule="evenodd" clip-rule="evenodd" d="M57.7748 35.282C57.7748 50.5666 46.1891 62.957 31.8972 62.957C17.6054 62.957 6.01965 50.5666 6.01965 35.282C6.01965 19.9976 17.6054 7.60706 31.8972 7.60706C46.1891 7.60706 57.7748 19.9976 57.7748 35.282ZM23.0382 17.0814H41.1059V30.7942H23.0382V17.0814ZM41.1059 37.7753H23.0382V51.8621H41.1059V37.7753Z" fill="white"/>
</svg>
